<svg width="1920" height="540" viewBox="0 0 1920 540" fill="none" xmlns="http://www.w3.org/2000/svg">
<g clip-path="url(#clip0_20_43)">
<rect width="1920" height="540" fill="#080808"/>
<g filter="url(#filter0_f_20_43)">
<rect x="1136" y="131" width="92" height="83" fill="white"/>
</g>
<g filter="url(#filter1_f_20_43)">
<rect x="1583" y="131" width="92" height="83" fill="white"/>
</g>
<path d="M1698.64 112.091C1698.01 112.983 1697.06 113.59 1695.98 113.779C1694.91 113.968 1693.81 113.724 1692.92 113.099L1679.46 103.677C1678.57 103.052 1677.96 102.099 1677.77 101.026C1677.58 99.9537 1677.83 98.8499 1678.45 97.9577C1679.08 97.0656 1680.03 96.4581 1681.1 96.269C1682.17 96.0798 1683.28 96.3246 1684.17 96.9493L1697.63 106.371C1698.52 106.996 1699.13 107.949 1699.32 109.022C1699.5 110.095 1699.26 111.198 1698.64 112.091ZM1721.52 57.9289C1722.52 58.6277 1723.7 59.0149 1724.92 59.0414C1726.14 59.068 1727.34 58.7328 1728.36 58.0782C1729.39 57.4236 1730.2 56.479 1730.69 55.3639C1731.18 54.2487 1731.33 53.0131 1731.12 51.8133C1730.91 50.6135 1730.35 49.5034 1729.5 48.6233C1728.66 47.7432 1727.58 47.1327 1726.39 46.869C1725.2 46.6054 1723.96 46.7003 1722.82 47.1419C1721.68 47.5834 1720.71 48.3518 1720.01 49.3498C1719.07 50.688 1718.7 52.3437 1718.99 53.9526C1719.27 55.5615 1720.18 56.9918 1721.52 57.9289ZM1748.82 104.513L1727.25 124.266C1726.22 125.204 1724.98 125.867 1723.63 126.193C1722.28 126.519 1720.86 126.497 1719.52 126.129C1718.19 125.761 1716.96 125.06 1715.97 124.09C1714.97 123.121 1714.24 121.915 1713.84 120.585L1708.44 103.915L1682.79 85.955L1665.27 86.5784C1663.88 86.6554 1662.5 86.3795 1661.25 85.7763C1660 85.1731 1658.92 84.2624 1658.11 83.1294C1657.31 81.9964 1656.81 80.6781 1656.65 79.2977C1656.5 77.9174 1656.69 76.5202 1657.23 75.2367L1668.41 48.2055C1668.89 47.0472 1669.63 46.0142 1670.57 45.1846C1671.51 44.3551 1672.63 43.7509 1673.84 43.418L1695.94 37.4209C1700.05 32.4089 1704.9 28.0592 1710.34 24.5247C1725.28 14.7241 1740.97 12.9937 1747.04 12.7166C1748.86 12.6286 1750.65 13.1477 1752.14 14.1923C1753.64 15.237 1754.74 16.7479 1755.28 18.4875C1757.08 24.2734 1760.83 39.6155 1756.73 57.0124C1755.27 63.3269 1752.84 69.3787 1749.54 74.9552L1751.46 97.7703C1751.56 99.0209 1751.38 100.278 1750.92 101.446C1750.46 102.615 1749.75 103.663 1748.82 104.513ZM1688.31 79.7925L1712.33 96.6163C1732.27 87.0494 1744.51 73.0999 1748.74 55.1307C1752.47 39.272 1748.69 24.9388 1747.43 20.9255C1743.22 21.1112 1728.46 22.454 1714.83 31.3876C1699.4 41.5132 1690.48 57.7887 1688.31 79.7925ZM1680.28 77.8359C1681.51 66.4381 1684.43 56.4284 1689.02 47.8067L1676 51.3454L1664.81 78.3808L1664.93 78.3791L1680.28 77.8359ZM1743.28 98.4546L1742.15 85.0053C1735.64 92.2617 1727.23 98.4281 1716.94 103.504L1721.66 118.096L1721.7 118.203L1743.28 98.4546Z" fill="white" fill-opacity="0.7"/>
<path d="M77.3 415V173.5H167.6C237.133 173.5 271.9 208.267 271.9 277.8V310.7C271.9 380.233 237.133 415 167.6 415H77.3ZM138.2 360.05H171.1C197.7 360.05 211 346.633 211 319.8V268.7C211 241.867 197.7 228.45 171.1 228.45H138.2V360.05ZM358.134 415C318.934 415 299.334 395.983 299.334 357.95C299.334 319.917 318.934 300.9 358.134 300.9H398.384V284.1C398.384 281.067 396.867 279.55 393.834 279.55H319.984V247L344.484 228.8H398.034C437.234 228.8 456.834 248.4 456.834 287.6V415H358.134ZM357.784 359.7C357.784 362.733 359.301 364.25 362.334 364.25H398.384V345H362.334C359.301 345 357.784 346.517 357.784 349.55V359.7ZM494.533 415V254C503.399 237.2 520.666 228.8 546.333 228.8H585.533L610.033 247V279.55H563.833C558.233 279.55 554.616 280.833 552.983 283.4V415H494.533ZM635.905 415V156H694.355V286.9L748.255 228.8H806.005L810.555 238.25L747.205 306.15L815.455 405.55L810.905 415H753.505L708.705 347.8L694.355 363.55V415H635.905ZM841.161 415V228.8H1053.96C1093.16 228.8 1112.76 248.4 1112.76 287.6V415H1054.31V284.1C1054.31 281.067 1052.79 279.55 1049.76 279.55H1006.36V415H947.561V279.55H899.611V415H841.161ZM1151.33 200.1V145.85H1211.18V200.1H1151.33ZM1152.03 415V228.8H1210.48V415H1152.03ZM1250.99 415V228.8H1355.29C1394.49 228.8 1414.09 248.4 1414.09 287.6V415H1355.64V284.1C1355.64 281.067 1354.12 279.55 1351.09 279.55H1309.44V415H1250.99ZM1451.77 356.2V173.5H1510.22V228.8H1567.27V279.55H1510.22V359.7C1510.22 362.733 1511.74 364.25 1514.77 364.25H1570.77V396.8L1546.27 415H1510.57C1471.37 415 1451.77 395.4 1451.77 356.2ZM1599.62 200.1V145.85H1659.47V200.1H1599.62ZM1600.32 415V228.8H1658.77V415H1600.32ZM1693.33 396.8V364.25H1773.83C1777.56 364.25 1779.43 361.683 1779.43 356.55C1779.43 351.183 1777.68 348.15 1774.18 347.45L1738.48 341.5C1708.38 336.367 1693.33 318.517 1693.33 287.95C1693.33 248.517 1712.93 228.8 1752.13 228.8H1804.28L1828.78 247V279.55H1756.68C1752.94 279.55 1751.08 282.117 1751.08 287.25C1751.08 294.017 1752.94 297.633 1756.68 298.1L1792.38 304.05C1822.24 308.95 1837.18 326.217 1837.18 355.85C1837.18 395.283 1817.58 415 1778.38 415H1717.83L1693.33 396.8Z" fill="white"/>
<rect x="1166" y="159" width="31" height="28" fill="#080808"/>
<rect x="1615" y="159" width="31" height="28" fill="#080808"/>
</g>
<defs>
<filter id="filter0_f_20_43" x="1036" y="31" width="292" height="283" filterUnits="userSpaceOnUse" color-interpolation-filters="sRGB">
<feFlood flood-opacity="0" result="BackgroundImageFix"/>
<feBlend mode="normal" in="SourceGraphic" in2="BackgroundImageFix" result="shape"/>
<feGaussianBlur stdDeviation="50" result="effect1_foregroundBlur_20_43"/>
</filter>
<filter id="filter1_f_20_43" x="1483" y="31" width="292" height="283" filterUnits="userSpaceOnUse" color-interpolation-filters="sRGB">
<feFlood flood-opacity="0" result="BackgroundImageFix"/>
<feBlend mode="normal" in="SourceGraphic" in2="BackgroundImageFix" result="shape"/>
<feGaussianBlur stdDeviation="50" result="effect1_foregroundBlur_20_43"/>
</filter>
<clipPath id="clip0_20_43">
<rect width="1920" height="540" fill="white"/>
</clipPath>

    <filter id="i_glow" x="-100%" y="-100%" width="300%" height="300%">
      <feGaussianBlur stdDeviation="18" result="blur1"/>
      <feGaussianBlur stdDeviation="8" result="blur2"/>
      <feMerge><feMergeNode in="blur1"/><feMergeNode in="blur2"/><feMergeNode in="SourceGraphic"/></feMerge>
    </filter>
    <filter id="i_glow_tight" x="-60%" y="-60%" width="220%" height="220%">
      <feGaussianBlur stdDeviation="10"/>
    </filter>
    <filter id="lightning_glow" x="-40%" y="-40%" width="180%" height="180%">
      <feGaussianBlur stdDeviation="3" result="b"/>
      <feMerge><feMergeNode in="b"/><feMergeNode in="b"/><feMergeNode in="SourceGraphic"/></feMerge>
    </filter>
    <filter id="rocket_glow" x="-60%" y="-60%" width="220%" height="220%">
      <feGaussianBlur stdDeviation="8" result="b"/>
      <feMerge><feMergeNode in="b"/><feMergeNode in="SourceGraphic"/></feMerge>
    </filter>
    <filter id="ambient" x="-100%" y="-100%" width="300%" height="300%">
      <feGaussianBlur stdDeviation="80"/>
    </filter>

</defs>

  <!-- ══ ANIMATIONS ══ -->

  <!-- Ambient bg glow — breathing -->
  <ellipse cx="960" cy="300" rx="800" ry="180" fill="#ffffff" opacity="0" filter="url(#ambient)">
    <animate attributeName="opacity" values="0.008;0.025;0.008" dur="4s" repeatCount="indefinite"/>
  </ellipse>

  <!-- ══ FIRST i DOT GLOW (mintis — first i) ══ -->
  <!-- Soft outer halo -->
  <ellipse cx="1182" cy="172" rx="60" ry="55" fill="#ffffff" opacity="0" filter="url(#i_glow)">
    <animate attributeName="opacity" values="0;0;0.18;0.35;0.18;0;0;0;0" dur="5s" repeatCount="indefinite"/>
  </ellipse>
  <!-- Tight bright glow -->
  <ellipse cx="1182" cy="172" rx="30" ry="28" fill="#ffffff" opacity="0" filter="url(#i_glow_tight)">
    <animate attributeName="opacity" values="0;0;0.4;0.7;0.4;0;0;0;0" dur="5s" repeatCount="indefinite"/>
  </ellipse>
  <!-- Core dot bright flash -->
  <rect x="1150" y="148" width="64" height="48" rx="4" fill="#ffffff" opacity="0">
    <animate attributeName="opacity" values="0;0;0.5;0.9;0.5;0;0;0;0" dur="5s" repeatCount="indefinite"/>
  </rect>

  <!-- Lightning from first i — realistic branching pattern -->
  <!-- Main bolt down -->
  <polyline points="1182,220 1178,248 1185,268 1179,292 1187,315 1180,338 1188,362 1182,385"
    stroke="#ffffff" stroke-width="1.2" fill="none" stroke-linecap="round" stroke-linejoin="round"
    opacity="0" filter="url(#lightning_glow)">
    <animate attributeName="opacity" values="0;0;0.9;0.6;0.8;0.3;0;0;0" dur="5s" repeatCount="indefinite"/>
  </polyline>
  <!-- Branch left from first i -->
  <polyline points="1182,268 1172,282 1162,295 1168,310 1158,328"
    stroke="#ffffff" stroke-width="0.8" fill="none" stroke-linecap="round" stroke-linejoin="round"
    opacity="0" filter="url(#lightning_glow)">
    <animate attributeName="opacity" values="0;0;0.7;0.4;0.6;0.2;0;0;0" dur="5s" begin="0.05s" repeatCount="indefinite"/>
  </polyline>
  <!-- Branch right from first i -->
  <polyline points="1185,292 1196,308 1190,322 1200,338 1194,352"
    stroke="#ffffff" stroke-width="0.7" fill="none" stroke-linecap="round" stroke-linejoin="round"
    opacity="0" filter="url(#lightning_glow)">
    <animate attributeName="opacity" values="0;0;0.6;0.4;0.5;0.2;0;0;0" dur="5s" begin="0.08s" repeatCount="indefinite"/>
  </polyline>
  <!-- Tiny branch off left branch -->
  <polyline points="1162,295 1150,302 1144,314"
    stroke="#ffffff" stroke-width="0.5" fill="none" stroke-linecap="round" stroke-linejoin="round"
    opacity="0" filter="url(#lightning_glow)">
    <animate attributeName="opacity" values="0;0;0.5;0.3;0.4;0;0;0;0" dur="5s" begin="0.1s" repeatCount="indefinite"/>
  </polyline>
  <!-- Tiny branch off right branch -->
  <polyline points="1190,322 1204,330 1212,342"
    stroke="#ffffff" stroke-width="0.5" fill="none" stroke-linecap="round" stroke-linejoin="round"
    opacity="0" filter="url(#lightning_glow)">
    <animate attributeName="opacity" values="0;0;0.4;0.3;0;0;0;0;0" dur="5s" begin="0.12s" repeatCount="indefinite"/>
  </polyline>
  <!-- Mini upward spark from first i -->
  <polyline points="1182,148 1186,128 1180,112 1188,96"
    stroke="#ffffff" stroke-width="0.8" fill="none" stroke-linecap="round" stroke-linejoin="round"
    opacity="0" filter="url(#lightning_glow)">
    <animate attributeName="opacity" values="0;0;0.5;0.3;0;0;0;0;0" dur="5s" begin="0.03s" repeatCount="indefinite"/>
  </polyline>

  <!-- ══ SECOND i DOT GLOW (tis — second i) ══ -->
  <!-- Offset timing so they dont fire at same time -->
  <!-- Soft outer halo -->
  <ellipse cx="1629" cy="172" rx="60" ry="55" fill="#ffffff" opacity="0" filter="url(#i_glow)">
    <animate attributeName="opacity" values="0;0.18;0.35;0.18;0;0;0;0;0" dur="5s" begin="2.5s" repeatCount="indefinite"/>
  </ellipse>
  <!-- Tight bright glow -->
  <ellipse cx="1629" cy="172" rx="30" ry="28" fill="#ffffff" opacity="0" filter="url(#i_glow_tight)">
    <animate attributeName="opacity" values="0;0.4;0.7;0.4;0;0;0;0;0" dur="5s" begin="2.5s" repeatCount="indefinite"/>
  </ellipse>
  <!-- Core dot bright flash -->
  <rect x="1597" y="148" width="64" height="48" rx="4" fill="#ffffff" opacity="0">
    <animate attributeName="opacity" values="0;0.5;0.9;0.5;0;0;0;0;0" dur="5s" begin="2.5s" repeatCount="indefinite"/>
  </rect>

  <!-- Lightning from second i — slightly different pattern -->
  <!-- Main bolt down -->
  <polyline points="1629,220 1624,246 1632,265 1626,288 1634,308 1627,332 1635,355 1628,378"
    stroke="#ffffff" stroke-width="1.2" fill="none" stroke-linecap="round" stroke-linejoin="round"
    opacity="0" filter="url(#lightning_glow)">
    <animate attributeName="opacity" values="0;0.9;0.6;0.8;0.3;0;0;0;0" dur="5s" begin="2.5s" repeatCount="indefinite"/>
  </polyline>
  <!-- Branch right from second i -->
  <polyline points="1629,265 1642,278 1650,292 1644,308 1655,322"
    stroke="#ffffff" stroke-width="0.8" fill="none" stroke-linecap="round" stroke-linejoin="round"
    opacity="0" filter="url(#lightning_glow)">
    <animate attributeName="opacity" values="0;0.7;0.4;0.6;0.2;0;0;0;0" dur="5s" begin="2.55s" repeatCount="indefinite"/>
  </polyline>
  <!-- Branch left from second i -->
  <polyline points="1626,288 1614,302 1620,318 1610,332"
    stroke="#ffffff" stroke-width="0.7" fill="none" stroke-linecap="round" stroke-linejoin="round"
    opacity="0" filter="url(#lightning_glow)">
    <animate attributeName="opacity" values="0;0.6;0.4;0.5;0.2;0;0;0;0" dur="5s" begin="2.58s" repeatCount="indefinite"/>
  </polyline>
  <!-- Tiny branches second i -->
  <polyline points="1650,292 1664,298 1670,310"
    stroke="#ffffff" stroke-width="0.5" fill="none" stroke-linecap="round" stroke-linejoin="round"
    opacity="0" filter="url(#lightning_glow)">
    <animate attributeName="opacity" values="0;0.5;0.3;0;0;0;0;0;0" dur="5s" begin="2.6s" repeatCount="indefinite"/>
  </polyline>
  <polyline points="1614,302 1602,308 1596,320"
    stroke="#ffffff" stroke-width="0.5" fill="none" stroke-linecap="round" stroke-linejoin="round"
    opacity="0" filter="url(#lightning_glow)">
    <animate attributeName="opacity" values="0;0.4;0.3;0;0;0;0;0;0" dur="5s" begin="2.62s" repeatCount="indefinite"/>
  </polyline>
  <!-- Mini upward spark second i -->
  <polyline points="1629,148 1634,130 1626,114 1632,98"
    stroke="#ffffff" stroke-width="0.8" fill="none" stroke-linecap="round" stroke-linejoin="round"
    opacity="0" filter="url(#lightning_glow)">
    <animate attributeName="opacity" values="0;0.5;0.3;0;0;0;0;0;0" dur="5s" begin="2.53s" repeatCount="indefinite"/>
  </polyline>

  <!-- ══ ROCKET ANIMATION ══ -->
  <!-- The rocket icon paths are in the SVG already, we animate a glow around it -->
  <!-- Rocket is approximately top-right based on preview around x=1820, y=80 area -->
  <!-- Rocket glow pulse -->
  <ellipse cx="1832" cy="82" rx="55" ry="55" fill="#ffffff" opacity="0" filter="url(#i_glow)">
    <animate attributeName="opacity" values="0;0.08;0.18;0.08;0" dur="3s" repeatCount="indefinite"/>
  </ellipse>

  <!-- Rocket exhaust trail — animated dots shooting down -->
  <circle cx="1832" cy="155" r="4" fill="#ffffff" opacity="0">
    <animate attributeName="cy" values="155;200;245" dur="1.2s" repeatCount="indefinite"/>
    <animate attributeName="opacity" values="0.5;0.2;0" dur="1.2s" repeatCount="indefinite"/>
    <animate attributeName="r" values="4;2.5;1" dur="1.2s" repeatCount="indefinite"/>
  </circle>
  <circle cx="1828" cy="155" r="3" fill="#ffffff" opacity="0">
    <animate attributeName="cy" values="155;195;235" dur="1.2s" begin="0.3s" repeatCount="indefinite"/>
    <animate attributeName="opacity" values="0.4;0.15;0" dur="1.2s" begin="0.3s" repeatCount="indefinite"/>
    <animate attributeName="r" values="3;2;0.8" dur="1.2s" begin="0.3s" repeatCount="indefinite"/>
  </circle>
  <circle cx="1836" cy="155" r="3" fill="#ffffff" opacity="0">
    <animate attributeName="cy" values="155;190;225" dur="1.2s" begin="0.6s" repeatCount="indefinite"/>
    <animate attributeName="opacity" values="0.3;0.12;0" dur="1.2s" begin="0.6s" repeatCount="indefinite"/>
    <animate attributeName="r" values="3;1.8;0.5" dur="1.2s" begin="0.6s" repeatCount="indefinite"/>
  </circle>
  <!-- Rocket subtle bob up down -->
  <g opacity="0">
    <animate attributeName="opacity" values="0.12;0.22;0.12" dur="2s" repeatCount="indefinite"/>
  </g>

</svg>
