<svg width="500" height="500" viewBox="0 0 500 500" fill="none" xmlns="http://www.w3.org/2000/svg">
<rect width="500" height="500" fill="white"/>
<path d="M132.95 304.05C137.85 296.95 141.6 290.3 144.2 284.1C146.9 277.8 148.85 272.2 150.05 267.3C151.35 262.4 152.1 258.3 152.3 255C152.6 251.6 152.75 249.2 152.75 247.8C152.75 242 152.1 236.4 150.8 231C149.6 225.6 148 220.5 146 215.7C144.1 210.9 142 206.45 139.7 202.35C137.4 198.25 135.15 194.6 132.95 191.4H158.45C160.75 195.2 162.95 199.15 165.05 203.25C167.15 207.25 169 211.55 170.6 216.15C172.2 220.75 173.45 225.7 174.35 231C175.35 236.2 175.85 241.8 175.85 247.8C175.85 251 175.65 254.65 175.25 258.75C174.85 262.75 174.05 267.15 172.85 271.95C171.65 276.65 169.9 281.7 167.6 287.1C165.3 292.5 162.25 298.15 158.45 304.05H132.95ZM285.802 300V244.95C285.802 243.65 285.552 242.8 285.052 242.4C284.552 241.9 283.552 241.65 282.052 241.65H265.252V300H240.952V241.65H220.552V300H196.252V225C197.452 224.9 199.102 224.8 201.202 224.7C202.902 224.6 205.152 224.55 207.952 224.55C210.852 224.45 214.352 224.4 218.452 224.4H285.502C289.902 224.4 293.652 224.7 296.752 225.3C299.852 225.9 302.352 227.05 304.252 228.75C306.252 230.35 307.702 232.65 308.602 235.65C309.502 238.55 309.952 242.3 309.952 246.9V300H285.802ZM347.606 304.05C343.706 298.15 340.606 292.5 338.306 287.1C336.006 281.7 334.256 276.65 333.056 271.95C331.856 267.15 331.056 262.75 330.656 258.75C330.356 254.65 330.206 251 330.206 247.8C330.206 241.8 330.656 236.2 331.556 231C332.556 225.7 333.806 220.75 335.306 216.15C336.906 211.55 338.756 207.25 340.856 203.25C342.956 199.15 345.206 195.2 347.606 191.4H372.956C370.756 194.6 368.506 198.25 366.206 202.35C363.906 206.45 361.756 210.9 359.756 215.7C357.856 220.5 356.256 225.6 354.956 231C353.756 236.4 353.156 242 353.156 247.8C353.156 249.2 353.256 251.6 353.456 255C353.756 258.3 354.506 262.4 355.706 267.3C357.006 272.2 358.956 277.8 361.556 284.1C364.256 290.3 368.056 296.95 372.956 304.05H347.606Z" fill="black"/>
</svg>
